<svg
  xmlns="http://www.w3.org/2000/svg"
  width="16"
  height="17"
  fill="none"
  viewBox="0 0 16 17"
>
  <path
    fill="#0277BD"
    d="M12.25.516h-8.5A3.75 3.75 0 0 0 0 4.266v8.5a3.75 3.75 0 0 0 3.75 3.75h8.5a3.75 3.75 0 0 0 3.75-3.75v-8.5a3.75 3.75 0 0 0-3.75-3.75"
  />
  <path
    fill="#EBEBEB"
    d="m3.36 6.931.178 1.997h4.468V6.93zm4.646-4.04H3l.182 1.996h4.824zm0 11.302v-2.077l-.009.002-2.223-.6-.142-1.592H3.628l.28 3.134 4.089 1.136z"
  />
  <path
    fill="#fff"
    d="m10.457 8.928-.231 2.589-2.227.6v2.078l4.093-1.135.03-.337.469-5.256.049-.536.36-4.04H8v1.996h2.812l-.181 2.044H7.999v1.997z"
  />
</svg>
