<svg
  xmlns="http://www.w3.org/2000/svg"
  width="16"
  height="16"
  fill="none"
  viewBox="0 0 16 16"
>
  <title>Electron icon</title>
  <g fill="#47848F">
    <path
      d="M6.134 4.082c-1.797-.327-3.215.016-3.782 1-.422.732-.3 1.702.293 2.738a.184.184 0 1 0 .32-.184c-.535-.934-.64-1.771-.294-2.375.47-.814 1.736-1.125 3.396-.817a.184.184 0 1 0 .067-.363zM3.579 9.077c.8.859 1.728 1.59 2.75 2.168 2.605 1.5 5.375 1.906 6.75.973a.184.184 0 1 0-.208-.303c-1.232.836-3.871.451-6.362-.99A11.2 11.2 0 0 1 3.85 8.828a.185.185 0 0 0-.272.25z"
    />
    <path
      d="M12.632 8.851c1.177-1.389 1.587-2.786 1.022-3.764-.415-.72-1.294-1.1-2.462-1.115a.184.184 0 0 0 0 .37c1.05.013 1.807.34 2.148.93.469.813.102 2.06-.984 3.343a.183.183 0 0 0 .022.26.184.184 0 0 0 .26-.023zm-3.02-4.707a11.5 11.5 0 0 0-3.282 1.3C3.641 7 1.886 9.286 2.125 10.946a.19.19 0 0 0 .375-.053c-.221-1.474 1.441-3.643 4.014-5.13A11.1 11.1 0 0 1 9.689 4.5a.184.184 0 1 0-.078-.36z"
    />
    <path
      d="M5.25 12.098c.625 1.716 1.625 2.777 2.756 2.777.825 0 1.588-.562 2.183-1.553a.185.185 0 1 0-.314-.197c-.535.89-1.191 1.375-1.868 1.375-.94 0-1.836-.943-2.405-2.53a.184.184 0 1 0-.346.125zm5.625-.337a11.6 11.6 0 0 0 .489-3.412c0-3.052-1.068-5.68-2.59-6.357a.185.185 0 1 0-.15.338C9.982 2.932 11 5.427 11 8.349a11.2 11.2 0 0 1-.473 3.302.19.19 0 0 0 .058.196.185.185 0 0 0 .26-.023.2.2 0 0 0 .034-.063zm3.464-.18a.882.882 0 1 0-1.764 0 .882.882 0 0 0 1.764 0m-.37 0a.513.513 0 1 1-1.025 0 .513.513 0 0 1 1.026 0m-11.427.882a.881.881 0 1 0 0-1.763.881.881 0 0 0 0 1.763m0-.37a.513.513 0 1 1 0-1.024.513.513 0 0 1 0 1.025"
    />
    <path
      d="M8.006 2.891a.881.881 0 1 0 0-1.762.881.881 0 0 0 0 1.762m0-.369a.512.512 0 1 1 0-1.024.512.512 0 0 1 0 1.024m.135 6.45a.637.637 0 1 1-.278-1.245.637.637 0 0 1 .278 1.244"
    />
  </g>
</svg>
