<svg
  xmlns="http://www.w3.org/2000/svg"
  width="16"
  height="16"
  fill="none"
  viewBox="0 0 16 16"
>
  <title>Eslint icon</title>
  <path
    fill="#8080F2"
    d="m4.833 6.084 3.032-1.755a.27.27 0 0 1 .245 0l3.046 1.755a.25.25 0 0 1 .129.206V9.8c0 .09-.052.168-.13.22l-3.032 1.755a.28.28 0 0 1-.245 0L4.833 10.02a.25.25 0 0 1-.13-.22V6.29c0-.077.052-.168.13-.206"
  ></path>
  <path
    fill="#4B32C3"
    d="M15.892 7.684 12.266 1.36a.76.76 0 0 0-.646-.4H4.368c-.258 0-.503.167-.645.4L.097 7.67a.77.77 0 0 0 0 .748l3.626 6.272c.129.232.374.348.645.348h7.265a.76.76 0 0 0 .646-.335l3.626-6.272c.129-.258.129-.529-.013-.748m-3.007 3.032c0 .09-.052.18-.142.22l-4.62 2.67a.24.24 0 0 1-.258 0L3.233 10.95c-.078-.052-.142-.13-.142-.22V5.374c0-.09.051-.18.142-.22l4.632-2.67a.24.24 0 0 1 .258 0l4.633 2.67c.077.052.142.13.142.22v5.342z"
  ></path>
</svg>
