<svg
  xmlns="http://www.w3.org/2000/svg"
  width="16"
  height="16"
  fill="none"
  viewBox="0 0 16 16"
>
  <path fill="#F0DB4F" d="M.176.176h15.648v15.648H.176z" />
  <path
    fill="#323330"
    d="M14.543 12.092c-.114-.714-.58-1.314-1.959-1.873-.479-.22-1.013-.377-1.172-.74-.056-.212-.064-.33-.028-.458.103-.415.598-.545.99-.426.253.085.493.28.637.59.676-.437.674-.434 1.146-.734-.173-.268-.265-.391-.378-.506-.406-.453-.96-.687-1.845-.67l-.46.06c-.442.112-.863.344-1.11.655-.741.84-.53 2.311.372 2.917.888.666 2.192.818 2.359 1.441.162.763-.561 1.01-1.28.922-.529-.11-.823-.379-1.142-.868l-1.188.685c.143.313.293.454.532.725 1.134 1.15 3.97 1.093 4.479-.647.02-.06.157-.459.047-1.073m-5.86-4.724H7.219l-.006 3.784c0 .805.042 1.542-.09 1.769-.213.444-.768.39-1.021.303-.257-.127-.388-.306-.54-.56a1 1 0 0 0-.083-.135l-1.19.73c.198.405.49.758.863.987.557.335 1.307.437 2.09.257.511-.149.951-.456 1.182-.925.333-.614.262-1.358.259-2.18.007-1.342 0-2.684 0-4.03"
  />
</svg>
