<svg
  xmlns="http://www.w3.org/2000/svg"
  width="16"
  height="16"
  fill="none"
  viewBox="0 0 16 16"
>
  <g clip-path="url(#mixpanel-a)">
    <path
      fill="#7D57FF"
      d="M4.645 6.664H6.68c-.509-.318-.699-.763-.954-1.59l-.764-2.83C4.612.972 4.327.367 2.927.367H.003v.764h.414c.857 0 .954.318 1.209 1.272l.667 2.481c.35 1.21.892 1.78 2.354 1.78zm4.706 0h2.036c1.462 0 1.97-.573 2.322-1.78l.668-2.481c.254-.954.38-1.272 1.209-1.272H16V.367h-2.893c-1.431 0-1.718.574-2.036 1.877l-.763 2.83c-.256.858-.449 1.272-.957 1.59M6.68 9.336h2.671V6.664H6.68zM0 15.633h2.927c1.4 0 1.686-.605 2.035-1.877l.764-2.83c.255-.827.445-1.272.954-1.59H4.645c-1.463 0-2.005.573-2.354 1.78l-.668 2.481c-.255.954-.349 1.272-1.209 1.272H0zm13.1 0h2.895v-.764h-.414c-.826 0-.954-.318-1.21-1.272l-.667-2.481c-.35-1.21-.857-1.78-2.322-1.78h-2.03c.507.318.693.732.949 1.59l.763 2.83c.318 1.303.605 1.877 2.036 1.877"
    />
  </g>
  <defs>
    <clipPath id="mixpanel-a"><path fill="#fff" d="M0 0h16v16H0z" /></clipPath>
  </defs>
</svg>
