<svg
  xmlns="http://www.w3.org/2000/svg"
  width="16"
  height="10"
  fill="none"
  viewBox="0 0 16 10"
>
  <g clip-path="url(#monday-a)">
    <path
      fill="#F62B54"
      d="M1.99 9.84a1.96 1.96 0 0 1-1.007-.278 2.02 2.02 0 0 1-.68-2.8L3.89.988c.183-.31.444-.565.755-.738A1.96 1.96 0 0 1 5.66 0a1.96 1.96 0 0 1 1 .304 2.023 2.023 0 0 1 .606 2.816L3.681 8.896a2 2 0 0 1-.728.694 1.96 1.96 0 0 1-.964.25"
    />
    <path
      fill="#FC0"
      d="M8.141 9.839a1.98 1.98 0 0 1-1.738-1.034 2.02 2.02 0 0 1 .054-2.034l3.58-5.763c.18-.314.44-.574.751-.75A1.96 1.96 0 0 1 11.808 0c.73.016 1.39.435 1.725 1.09a2.02 2.02 0 0 1-.13 2.045L9.826 8.9a1.99 1.99 0 0 1-1.684.94"
    />
    <path
      fill="#00CA72"
      d="M14.154 9.887A1.85 1.85 0 0 0 16 8.034a1.85 1.85 0 0 0-1.846-1.854 1.85 1.85 0 0 0-1.846 1.854 1.85 1.85 0 0 0 1.846 1.853"
    />
  </g>
  <defs>
    <clipPath id="monday-a"><path fill="#fff" d="M0 0h16v10H0z" /></clipPath>
  </defs>
</svg>
  
