<svg
  xmlns="http://www.w3.org/2000/svg"
  width="16"
  height="16"
  fill="none"
  viewBox="0 0 16 16"
>
  <g fill-rule="evenodd" clip-rule="evenodd">
    <path
      fill="#439934"
      d="M11.005 5.352c.2.58.345 1.172.392 1.786a7.9 7.9 0 0 1-.128 2.268l-.02.06c-.051 0-.103-.006-.152.002q-.624.098-1.247.2c-.43.07-.86.137-1.29.211-.151.026-.34-.005-.401.205-.002.006-.02.007-.03.01l.021-1.256-.02-3.032.2-.034q.491-.082.982-.16.587-.093 1.174-.183z"
    />
    <path
      fill="#45A538"
      d="M7.716 13.757c-.211-.182-.43-.355-.632-.546-1.09-1.028-1.887-2.238-2.28-3.696a6 6 0 0 1-.203-1.224c-.016-.29-.04-.583-.019-.872.055-.768.166-1.529.39-2.269l.013-.017c.022.03.054.055.065.088q.33.97.655 1.944l2.047 6.112c.013.04.048.073.073.109z"
    />
    <path
      fill="#46A037"
      d="M11.005 5.352q-.26.037-.519.077-.587.09-1.174.183-.491.078-.983.16l-.2.034-.001-.13c-.007-.108-.018-.215-.02-.322l-.022-2.055q-.008-.642-.022-1.285a32 32 0 0 0-.023-.799c-.007-.143-.03-.285-.039-.428-.005-.082.002-.165.004-.247q.151.298.307.594c.165.31.43.539.668.788a8.8 8.8 0 0 1 2.024 3.43"
    />
    <path
      fill="#409433"
      d="M8.13 10.094c.01-.003.027-.004.029-.01.061-.21.25-.179.401-.205.43-.074.86-.141 1.29-.21q.623-.103 1.247-.201c.05-.008.1-.002.151-.002-.078.278-.139.561-.237.831a9 9 0 0 1-.392.898 6 6 0 0 1-.794 1.22c-.24.289-.507.555-.775.819-.148.145-.323.264-.486.395l-.042-.029-.151-.13-.157-.344a5.2 5.2 0 0 1-.175-1.23l.003-.07.022-.303q.012-.156.02-.31.024-.56.045-1.119"
    />
    <path
      fill="#4FAA41"
      d="m8.13 10.094-.045 1.119q-.009.155-.021.31l-.096.036q-.32-.936-.633-1.864l-1.026-3.08a562 562 0 0 0-.838-2.483c-.013-.04-.05-.07-.077-.104l.612-1.125c.021.037.049.07.062.11q.426 1.257.846 2.515l1.091 3.274c.015.044.039.084.062.133l.083-.097z"
    />
    <path
      fill="#4AA73C"
      d="M5.394 4.028c.027.035.064.065.077.104q.422 1.24.838 2.483l1.027 3.08q.312.929.632 1.864l.096-.036-.021.303-.02.07c-.033.332-.061.665-.102.996-.02.166-.063.33-.096.494-.025-.036-.06-.069-.073-.108L5.705 7.164Q5.38 6.192 5.05 5.22c-.011-.033-.043-.058-.065-.088z"
    />
    <path
      fill="#57AE47"
      d="m8.15 8.838-.084.097c-.022-.049-.046-.089-.06-.133L6.913 5.529q-.42-1.258-.846-2.515c-.013-.04-.04-.074-.062-.11l.757-.995c.024.031.058.06.07.096q.315.922.626 1.847c.193.575.383 1.152.58 1.726.012.039.058.066.088.099l.002.13z"
    />
    <path
      fill="#60B24F"
      d="M8.128 5.676c-.03-.033-.077-.06-.09-.099l-.58-1.726a392 392 0 0 0-.625-1.848c-.012-.036-.046-.064-.07-.096.246-.24.485-.49.74-.72.228-.205.411-.424.42-.746 0-.014.007-.027.018-.065l.065.164c-.002.082-.01.165-.004.247.01.143.033.285.04.428q.015.399.022.799.014.642.022 1.285.01 1.028.023 2.054c0 .108.012.215.019.323"
    />
    <path
      fill="#A9AA88"
      d="M7.825 13.386c.033-.165.076-.328.096-.494.04-.33.069-.664.102-.996l.008-.001.008.001c.009.416.068.829.175 1.23-.022.03-.053.055-.065.088-.09.256-.176.514-.268.77-.012.036-.047.063-.072.094l-.093-.321z"
    />
    <path
      fill="#B6B598"
      d="M7.81 14.078c.024-.031.059-.058.071-.093.092-.257.177-.515.268-.771.012-.033.043-.059.065-.088l.157.345c-.031.043-.074.083-.091.132l-.3.883c-.013.035-.055.06-.084.09z"
    />
    <path
      fill="#C2C1A7"
      d="M7.896 14.576c.029-.03.07-.055.083-.09l.3-.883c.018-.049.06-.089.092-.133l.152.13c-.074.072-.115.156-.09.262l-.046.151c-.021.026-.052.049-.062.078-.105.3-.205.603-.31.903-.014.038-.051.068-.077.101z"
    />
    <path
      fill="#CECDB7"
      d="M7.938 15.095c.026-.033.063-.063.077-.101.105-.3.205-.602.31-.903.01-.03.04-.052.062-.078l-.064.693c-.017.02-.041.037-.05.06l-.211.607c-.015.041-.044.078-.066.117-.02-.026-.055-.051-.057-.078-.006-.105-.002-.211-.001-.317"
    />
    <path
      fill="#DBDAC7"
      d="M7.996 15.49c.022-.04.05-.076.066-.117l.212-.607c.008-.023.032-.04.05-.06v.455l-.151.39z"
    />
    <path fill="#EBE9DC" d="m8.172 15.552.153-.39.031.461z" />
    <path
      fill="#CECDB7"
      d="M8.433 13.862c-.025-.106.016-.19.09-.262l.042.029z"
    />
    <path fill="#4FAA41" d="m8.04 11.897-.009-.002-.008.001.02-.07z" />
  </g>
</svg>
