<svg
  xmlns="http://www.w3.org/2000/svg"
  width="16"
  height="16"
  fill="none"
  viewBox="0 0 16 16"
>
  <path
    fill="#000"
    fill-rule="evenodd"
    d="M6.667 1.333A2.67 2.67 0 0 1 8.973 2.66l.066.121.425-.245a2.667 2.667 0 0 1 3.65 3.63l-.075.125.425.245a2.666 2.666 0 0 1-1.32 4.976L12 11.509V12a2.666 2.666 0 0 1-4.973 1.34l-.066-.121-.425.245a2.667 2.667 0 0 1-3.65-3.63l.075-.125-.425-.245a2.667 2.667 0 0 1 1.32-4.976L4 4.491V4a2.667 2.667 0 0 1 2.667-2.667M9.8 8.525l-.045 2.706a.67.67 0 0 1-.26.518l-.073.048-1.304.754a1.335 1.335 0 0 0 2.544-.452l.004-.099V9.044zM8.446 9.823l-2.367 1.313a.67.67 0 0 1-.656-.005l-1.304-.754a1.334 1.334 0 0 0 1.75 1.932l2.56-1.478zm1.791-3.61-.882.49 2.322 1.392a.67.67 0 0 1 .323.572v1.506a1.334 1.334 0 0 0 .797-2.482zM4 5.827a1.334 1.334 0 0 0-.885 2.426l.088.056 2.56 1.478.882-.49-2.322-1.392a.67.67 0 0 1-.318-.486L4 7.333zm2.667-3.16A1.333 1.333 0 0 0 5.333 4v2.956l.866.52.045-2.707a.67.67 0 0 1 .333-.567l1.304-.753a1.33 1.33 0 0 0-1.214-.782m5.285 1.512a1.334 1.334 0 0 0-1.73-.537l-.091.049-2.56 1.478-.017 1.008 2.367-1.313a.67.67 0 0 1 .578-.033l.078.038 1.305.754c.295-.414.34-.977.07-1.444"
    clip-rule="evenodd"
  />
</svg>
