<svg
  xmlns="http://www.w3.org/2000/svg"
  width="16"
  height="16"
  fill="none"
  viewBox="0 0 16 16"
>
  <title>Prettier icon</title>
  <path
    fill="#56B3B4"
    d="M12.64 3.048h-.899a.31.31 0 0 0-.312.312v.137c0 .173.14.312.312.312h.899c.172 0 .312-.14.312-.312V3.36a.31.31 0 0 0-.312-.312"
  ></path>
  <path
    fill="#EA5E5E"
    d="M4.259 15.238H.312a.31.31 0 0 0-.312.313v.136c0 .173.14.313.313.313h3.946c.173 0 .312-.14.312-.312v-.137a.31.31 0 0 0-.312-.313"
  ></path>
  <path
    fill="#BF85BF"
    d="M11.878 9.143H9.455a.31.31 0 0 0-.312.312v.137c0 .173.14.313.312.313h2.423c.172 0 .312-.14.312-.313v-.137a.31.31 0 0 0-.312-.312"
  ></path>
  <path
    fill="#EA5E5E"
    d="M8.069 9.143H4.884a.31.31 0 0 0-.312.312v.137c0 .173.14.313.312.313h3.185c.172 0 .312-.14.312-.313v-.137a.31.31 0 0 0-.312-.312"
  ></path>
  <path
    fill="#56B3B4"
    d="M3.497 9.143H.313A.31.31 0 0 0 0 9.455v.137c0 .173.14.313.313.313h3.184c.173 0 .313-.14.313-.313v-.137a.31.31 0 0 0-.313-.312"
  ></path>
  <path
    fill="#BF85BF"
    d="M4.259 12.19H.312a.31.31 0 0 0-.312.313v.137c0 .172.14.312.313.312h3.946c.173 0 .312-.14.312-.312v-.137a.31.31 0 0 0-.312-.312m0-6.096H.312A.313.313 0 0 0 0 6.408v.137c0 .172.14.312.313.312h3.946c.173 0 .312-.14.312-.312v-.137a.313.313 0 0 0-.312-.313"
  ></path>
  <path
    fill="#F7BA3E"
    d="M11.878 1.524H4.122a.31.31 0 0 0-.312.312v.137c0 .173.14.313.312.313h7.756c.173 0 .313-.14.313-.313v-.137a.31.31 0 0 0-.313-.312"
  ></path>
  <path
    fill="#EA5E5E"
    d="M2.735 1.524H.313A.31.31 0 0 0 0 1.836v.137c0 .173.14.313.313.313h2.422c.173 0 .313-.14.313-.313v-.137a.313.313 0 0 0-.313-.312"
  ></path>
  <path
    fill="#F7BA3E"
    d="M4.259 13.714H3.36a.31.31 0 0 0-.312.313v.137c0 .172.14.312.312.312h.899c.173 0 .312-.14.312-.312v-.137a.31.31 0 0 0-.312-.313"
  ></path>
  <path
    fill="#56B3B4"
    d="M4.259 4.571H3.36a.31.31 0 0 0-.312.313v.137c0 .172.14.312.312.312h.899c.173 0 .312-.14.312-.312v-.137a.31.31 0 0 0-.312-.313m-2.286 9.143H.313a.31.31 0 0 0-.313.313v.137c0 .172.14.312.313.312h1.66c.173 0 .313-.14.313-.312v-.137a.31.31 0 0 0-.313-.313"
  ></path>
  <path
    fill="#F7BA3E"
    d="M1.973 4.571H.313A.31.31 0 0 0 0 4.884v.137c0 .172.14.312.313.312h1.66c.173 0 .313-.14.313-.312v-.137a.31.31 0 0 0-.313-.313"
  ></path>
  <path
    fill="#D0D4D8"
    d="M11.116 13.714h-.899a.31.31 0 0 0-.312.313v.137c0 .172.14.312.312.312h.9c.172 0 .312-.14.312-.312v-.137a.31.31 0 0 0-.313-.313m-2.286 0H5.646a.31.31 0 0 0-.313.313v.137c0 .172.14.312.313.312H8.83c.173 0 .313-.14.313-.312v-.137a.31.31 0 0 0-.313-.313m6.857 0h-3.184a.31.31 0 0 0-.313.313v.137c0 .172.14.312.313.312h3.184c.173 0 .313-.14.313-.312v-.137a.31.31 0 0 0-.313-.313"
    opacity=".5"></path>
  <path
    fill="#56B3B4"
    d="M12.64 7.619H6.408a.313.313 0 0 0-.313.313v.136c0 .173.14.313.313.313h6.232c.172 0 .312-.14.312-.313v-.136a.31.31 0 0 0-.312-.313"
  ></path>
  <path
    fill="#F7BA3E"
    d="M5.02 7.619H2.599a.313.313 0 0 0-.312.313v.136c0 .173.14.313.312.313h2.423c.172 0 .312-.14.312-.313v-.136a.31.31 0 0 0-.312-.313"
  ></path>
  <path
    fill="#EA5E5E"
    d="M1.211 7.619H.312A.31.31 0 0 0 0 7.932v.136c0 .173.14.313.313.313h.898c.173 0 .313-.14.313-.313v-.136a.31.31 0 0 0-.313-.313"
  ></path>
  <path
    fill="#BF85BF"
    d="M10.354 3.048H7.17a.31.31 0 0 0-.313.312v.137c0 .173.14.312.313.312h3.184c.173 0 .313-.14.313-.312V3.36a.31.31 0 0 0-.313-.312"
  ></path>
  <path
    fill="#56B3B4"
    d="M5.783 3.048H.313A.31.31 0 0 0 0 3.36v.137c0 .173.14.312.313.312h5.47c.172 0 .312-.14.312-.312V3.36a.31.31 0 0 0-.312-.312"
  ></path>
  <path
    fill="#F7BA3E"
    d="M9.592 10.667H2.598a.313.313 0 0 0-.312.312v.137c0 .173.14.313.312.313h6.994c.173 0 .313-.14.313-.313v-.137a.313.313 0 0 0-.313-.312"
  ></path>
  <path
    fill="#BF85BF"
    d="M1.211 10.667H.312a.313.313 0 0 0-.312.312v.137c0 .173.14.313.313.313h.898c.173 0 .313-.14.313-.313v-.137a.313.313 0 0 0-.313-.312"
  ></path>
  <path
    fill="#EA5E5E"
    d="M13.402 4.571H9.455a.31.31 0 0 0-.312.313v.137c0 .172.14.312.312.312h3.947c.172 0 .312-.14.312-.312v-.137a.313.313 0 0 0-.312-.313"
  ></path>
  <path
    fill="#F7BA3E"
    d="M13.402 6.095H9.455a.313.313 0 0 0-.312.313v.137c0 .172.14.312.312.312h3.947c.172 0 .312-.14.312-.312v-.137a.313.313 0 0 0-.312-.313"
  ></path>
  <path
    fill="#56B3B4"
    d="M9.592 0H.312A.31.31 0 0 0 0 .313v.136c0 .173.14.313.313.313h9.28c.172 0 .312-.14.312-.313V.313A.31.31 0 0 0 9.592 0"
  ></path>
  <path
    fill="#D0D4D8"
    d="M15.688 0h-4.709a.313.313 0 0 0-.312.313v.136c0 .173.14.313.312.313h4.709c.172 0 .312-.14.312-.313V.313A.313.313 0 0 0 15.688 0M12.64 10.667h-1.66a.313.313 0 0 0-.313.312v.137c0 .173.14.313.312.313h1.66c.174 0 .313-.14.313-.313v-.137a.313.313 0 0 0-.312-.312m3.048 0h-1.661a.313.313 0 0 0-.313.312v.137c0 .173.14.313.313.313h1.66c.173 0 .313-.14.313-.313v-.137a.313.313 0 0 0-.312-.312m0-1.524h-2.423a.31.31 0 0 0-.313.312v.137c0 .173.14.313.313.313h2.422c.173 0 .313-.14.313-.313v-.137a.31.31 0 0 0-.312-.312m0-7.619h-2.423a.31.31 0 0 0-.313.312v.137c0 .173.14.313.313.313h2.422c.173 0 .313-.14.313-.313v-.137a.31.31 0 0 0-.312-.312m0 6.095h-1.661a.31.31 0 0 0-.313.313v.136c0 .173.14.313.313.313h1.66c.173 0 .313-.14.313-.313v-.136a.31.31 0 0 0-.312-.313m0-4.571h-1.661a.31.31 0 0 0-.313.312v.137c0 .173.14.312.313.312h1.66c.173 0 .313-.14.313-.312V3.36a.31.31 0 0 0-.312-.312m-.001 1.523h-.898a.31.31 0 0 0-.313.313v.137c0 .172.14.312.313.312h.898c.173 0 .313-.14.313-.312v-.137a.31.31 0 0 0-.313-.313m0 1.524h-.898a.31.31 0 0 0-.313.313v.137c0 .172.14.312.313.312h.898c.173 0 .313-.14.313-.312v-.137a.31.31 0 0 0-.313-.313m0 6.095H8.693a.31.31 0 0 0-.312.313v.137c0 .172.14.312.312.312h6.994c.173 0 .313-.14.313-.312v-.137a.31.31 0 0 0-.313-.312m-8.381-.001h-1.66a.31.31 0 0 0-.313.313v.137c0 .172.14.312.313.312h1.66c.173 0 .313-.14.313-.312v-.137a.31.31 0 0 0-.313-.312m8.381 3.047h-3.946a.31.31 0 0 0-.312.313v.136c0 .173.14.313.312.313h3.946c.173 0 .313-.14.313-.312v-.137a.31.31 0 0 0-.313-.313m-5.333 0H5.646a.31.31 0 0 0-.313.313v.136c0 .173.14.313.313.313h4.708c.173 0 .313-.14.313-.312v-.137a.31.31 0 0 0-.313-.313M8.068 4.571H5.646a.31.31 0 0 0-.313.313v.137c0 .172.14.312.313.312h2.422c.173 0 .313-.14.313-.312v-.137a.31.31 0 0 0-.313-.313m0 1.524H5.646a.313.313 0 0 0-.313.313v.137c0 .172.14.312.313.312h2.422c.173 0 .313-.14.313-.312v-.137a.313.313 0 0 0-.313-.313"
    opacity=".5"></path>
</svg>
