<svg
  xmlns="http://www.w3.org/2000/svg"
  width="16"
  height="16"
  fill="none"
  viewBox="0 0 16 16"
>
  <path
    fill="#DFDEDF"
    d="M13.251 8.97H2.732v-.593a.72.72 0 0 1 .722-.721h9.075a.72.72 0 0 1 .722.721z"
  />
  <path
    fill="#fff"
    d="M12.518 15.85H3.465a.733.733 0 0 1-.733-.733V8.97h10.52v6.147a.73.73 0 0 1-.734.732"
  />
  <path
    fill="#00D8A2"
    d="m11.479 5.553 1.287-.62V4.31L9.792 2.89l2.974-1.532V.76L11.523.183l-3.52 1.753L4.422.183 3.267.805v.532l2.796 1.531-2.796 1.42v.644l1.199.621 3.55-1.82z"
  />
  <path
    fill="#000"
    d="M4.459.009a.08.08 0 0 0-.074 0L3.113.655a.08.08 0 0 0-.045.074v.663c0 .032.018.06.046.074l.9.445-.177 1.931-.71.353a.08.08 0 0 0-.046.073l-.012.652a.08.08 0 0 0 .045.075l.59.299-.035.383-.804 2.086a.8.8 0 0 0-.224.556v6.874a.81.81 0 0 0 .807.807h9.104a.81.81 0 0 0 .807-.807V8.319a.8.8 0 0 0-.2-.531l-.824-2.515.506-.245a.08.08 0 0 0 .046-.075v-.681a.08.08 0 0 0-.046-.074l-.645-.318-.162-2.008.808-.406a.08.08 0 0 0 .045-.073V.74a.08.08 0 0 0-.044-.074L11.56.01a.08.08 0 0 0-.075 0L8.04 1.758a.08.08 0 0 1-.074 0zm-.036.293 3.58 1.855 3.52-1.855.896.46-3.26 1.64a.177.177 0 0 0 0 .316l3.226 1.615-.836.433L8.002 2.95 4.393 4.803 3.57 4.33l3.332-1.657a.177.177 0 0 0-.002-.318L3.557.742zm8.186.675v.295L9.78 2.693l-.298-.142zM3.388.995 6.505 2.55l-.315.126-2.802-1.388zm8.263 1.07.13 1.612-1.689-.83zM4.396 2.1l1.479.73-1.62.805zm3.746 1.293 3.22 1.591v.32l-3.22-1.65zm-.279 0v.261L4.561 5.325v-.294zm.102.535a.08.08 0 0 1 .075 0l3.413 1.736a.08.08 0 0 0 .073 0l.4-.193.164 2.041H3.9l.16-1.743.095-.247.28.141a.08.08 0 0 0 .074 0zm-4.619.595.937.538v.214L3.346 4.8zm9.263.007v.3l-.969.47v-.268zm-.173 2.33.216.659a1 1 0 0 0-.1-.007h-.064zm-8.9.265-.035.387h-.053l-.062.003zm-.088.625h9.104a.57.57 0 0 1 .569.569v.532H2.878v-.532a.57.57 0 0 1 .569-.569m.079.39a.18.18 0 1 0 0 .36.18.18 0 0 0 0-.36m.615 0a.18.18 0 1 0 0 .36.18.18 0 0 0 0-.36m.597 0a.18.18 0 1 0 0 .36.18.18 0 0 0 0-.36m-1.86.95H13.12v6.103a.57.57 0 0 1-.568.568H3.448a.57.57 0 0 1-.569-.568zm.625 2.393v1.369h.222v-.52h.286a.5.5 0 0 0 .168-.03.35.35 0 0 0 .128-.087.38.38 0 0 0 .101-.216.6.6 0 0 0-.02-.266.37.37 0 0 0-.289-.243l-.088-.008zm5.653.167v.273h-.193v.195h.194v.374a.6.6 0 0 0 .023.158.3.3 0 0 0 .07.111.3.3 0 0 0 .113.068.4.4 0 0 0 .148.023.4.4 0 0 0 .114-.017.5.5 0 0 0 .12-.05l-.068-.199a.4.4 0 0 1-.078.032.3.3 0 0 1-.103.009l-.027-.007a.1.1 0 0 1-.056-.052l-.01-.026a.3.3 0 0 1-.008-.068v-.356h.295v-.195h-.295v-.273zm-5.431.064h.296q.026.001.05.007l.01.003q.005 0 .008.003a.2.2 0 0 1 .052.034l.007.006.02.029.005.007.003.008.007.017.003.009.002.009.002.01.005.04v.031l-.002.01-.003.02-.002.01-.002.01a.2.2 0 0 1-.033.064l-.005.006a.15.15 0 0 1-.067.043l-.01.003a.2.2 0 0 1-.06.007h-.286zm2.51.181a.6.6 0 0 0-.165.025.4.4 0 0 0-.134.075v-.072H5.7v1.332h.238v-.5a.45.45 0 0 0 .298.097.43.43 0 0 0 .242-.077.5.5 0 0 0 .169-.212.5.5 0 0 0 .032-.188.5.5 0 0 0-.008-.099.47.47 0 0 0-.268-.346.4.4 0 0 0-.167-.034m1.16 0a.6.6 0 0 0-.164.025.4.4 0 0 0-.134.075v-.072h-.239v1.332h.239v-.5a.45.45 0 0 0 .298.097.42.42 0 0 0 .342-.17.45.45 0 0 0 .092-.209.56.56 0 0 0-.043-.329.5.5 0 0 0-.08-.113.5.5 0 0 0-.07-.06.4.4 0 0 0-.241-.075m1.017 0a.5.5 0 0 0-.095.01.4.4 0 0 0-.165.066.5.5 0 0 0-.172.213.6.6 0 0 0-.015.338.46.46 0 0 0 .114.196.46.46 0 0 0 .236.125.5.5 0 0 0 .167.004.5.5 0 0 0 .192-.066.4.4 0 0 0 .14-.143l.032-.065-.214-.045a.3.3 0 0 1-.04.052.24.24 0 0 1-.112.06.3.3 0 0 1-.112.004.2.2 0 0 1-.072-.03.25.25 0 0 1-.101-.131l-.012-.045h.686v-.082a.5.5 0 0 0-.038-.184.44.44 0 0 0-.17-.204.44.44 0 0 0-.249-.072m1.838 0a.5.5 0 0 0-.095.01.43.43 0 0 0-.268.16.44.44 0 0 0-.095.21.57.57 0 0 0 .044.332.44.44 0 0 0 .152.17.44.44 0 0 0 .258.075.6.6 0 0 0 .143-.018.41.41 0 0 0 .295-.26l-.213-.046a.25.25 0 0 1-.091.09.3.3 0 0 1-.062.022.3.3 0 0 1-.072.008.2.2 0 0 1-.144-.058.25.25 0 0 1-.07-.107l-.011-.045h.686v-.082a.6.6 0 0 0-.038-.184.44.44 0 0 0-.17-.204.44.44 0 0 0-.249-.072m1.072 0a.45.45 0 0 0-.458.38.6.6 0 0 0 .01.246.46.46 0 0 0 .115.197.44.44 0 0 0 .329.134.6.6 0 0 0 .142-.018.5.5 0 0 0 .124-.053.4.4 0 0 0 .171-.208l-.213-.045a.25.25 0 0 1-.091.09.2.2 0 0 1-.061.022.3.3 0 0 1-.072.008.2.2 0 0 1-.145-.058.25.25 0 0 1-.069-.107l-.012-.045h.687v-.082a.6.6 0 0 0-.038-.184.44.44 0 0 0-.171-.204.44.44 0 0 0-.248-.072m1.2.015a.38.38 0 0 0-.324.177v-.164h-.239v.902h.239v-.291a1 1 0 0 1 .02-.17.4.4 0 0 1 .06-.12.25.25 0 0 1 .1-.073.5.5 0 0 1 .14-.024h.054l.013-.23-.027-.005zm-7.961.013v.55a.5.5 0 0 0 .025.151.35.35 0 0 0 .19.2.4.4 0 0 0 .147.028.5.5 0 0 0 .158-.027.35.35 0 0 0 .125-.082v.082h.239v-.902h-.239v.4a1 1 0 0 1-.014.136.3.3 0 0 1-.042.097.18.18 0 0 1-.115.072.3.3 0 0 1-.093.001.16.16 0 0 1-.092-.054.2.2 0 0 1-.038-.067.3.3 0 0 1-.012-.086v-.5zm1.632.18q.027 0 .053.005a.25.25 0 0 1 .11.052l.01.009.01.009a.24.24 0 0 1 .06.111.4.4 0 0 1 .006.143.25.25 0 0 1-.05.118.24.24 0 0 1-.172.092.25.25 0 0 1-.165-.04.3.3 0 0 1-.06-.053.2.2 0 0 1-.048-.091.4.4 0 0 1-.006-.14.25.25 0 0 1 .093-.156.3.3 0 0 1 .087-.048.2.2 0 0 1 .072-.01m1.16 0q.026 0 .053.005a.25.25 0 0 1 .1.045l.01.007.01.009.01.009q.026.027.042.062a.3.3 0 0 1 .018.05.35.35 0 0 1-.03.24.3.3 0 0 1-.03.04.3.3 0 0 1-.06.045.2.2 0 0 1-.07.024.25.25 0 0 1-.191-.038.28.28 0 0 1-.108-.143.4.4 0 0 1-.006-.14.25.25 0 0 1 .093-.156.25.25 0 0 1 .159-.059m1.059 0 .03.002.01.002q.015.002.03.007l.029.011.008.004.027.016a.2.2 0 0 1 .066.085l.004.01.006.02.003.01h-.435l.01-.034.003-.006a.2.2 0 0 1 .04-.056l.005-.006.027-.021.028-.017.007-.004a.2.2 0 0 1 .06-.019l.01-.001zm1.838 0 .03.002.01.002a.3.3 0 0 1 .059.018l.008.004.027.016a.2.2 0 0 1 .032.03l.006.007.005.007.015.024q.011.022.018.047l.003.01h-.435l.01-.034.003-.006a.2.2 0 0 1 .04-.056l.005-.006.027-.021.027-.017.008-.004a.2.2 0 0 1 .06-.019l.01-.001zm1.072 0 .03.002.01.002a.2.2 0 0 1 .058.018l.009.004.026.016a.2.2 0 0 1 .067.085l.004.01.006.02.003.01H11.1l.011-.034.003-.006a.2.2 0 0 1 .039-.056l.006-.006a.2.2 0 0 1 .054-.038l.007-.003a.3.3 0 0 1 .061-.02l.01-.001z"
  />
</svg>
