<svg
  xmlns="http://www.w3.org/2000/svg"
  width="16"
  height="17"
  fill="none"
  viewBox="0 0 16 17"
>
  <g fill="#61DAFB">
    <path d="M8 9.94a1.425 1.425 0 1 0 0-2.85 1.425 1.425 0 0 0 0 2.85" />
    <path
      d="M13.413 6.166c-.276-.1-.563-.2-.863-.288.075-.3.137-.6.188-.888.262-1.65-.025-2.812-.825-3.262-.238-.137-.5-.2-.8-.2-.875 0-1.988.65-3.113 1.737-1.125-1.087-2.238-1.737-3.113-1.737-.3 0-.562.063-.8.2-.8.463-1.087 1.625-.825 3.263.05.287.113.587.188.887-.3.087-.588.175-.863.287-1.562.6-2.412 1.425-2.412 2.35s.862 1.75 2.412 2.35c.275.1.563.2.863.288-.075.3-.138.6-.188.887-.262 1.65.025 2.813.825 3.263.238.137.5.2.8.2.888 0 2-.65 3.113-1.738 1.125 1.088 2.238 1.738 3.113 1.738.3 0 .562-.062.8-.2.8-.463 1.087-1.625.825-3.263-.05-.287-.113-.587-.188-.887.3-.088.587-.175.862-.287 1.563-.6 2.413-1.425 2.413-2.35 0-.926-.85-1.75-2.412-2.35m-1.85-3.813c.512.3.687 1.225.474 2.538-.037.262-.1.537-.175.824A15 15 0 0 0 9.8 5.403c-.425-.6-.863-1.137-1.3-1.625.925-.913 1.863-1.537 2.625-1.537.162 0 .313.037.438.112m-1.4 7.413c-.226.4-.488.8-.763 1.2-.463.037-.925.05-1.4.05-.488 0-.95-.013-1.4-.05q-.413-.6-.75-1.2a20 20 0 0 1-.663-1.25c.2-.413.425-.838.663-1.25.225-.4.487-.8.762-1.2.463-.038.925-.05 1.4-.05.488 0 .95.012 1.4.05q.412.6.75 1.2c.238.412.463.837.663 1.25-.212.412-.425.825-.662 1.25m1.037-.413c.188.438.338.863.475 1.287-.425.1-.875.175-1.35.238.15-.238.313-.488.45-.75.15-.262.287-.525.425-.775M8 12.741c-.3-.325-.588-.675-.863-1.038.288.013.575.025.863.025.287 0 .575-.012.862-.025-.275.363-.562.713-.862 1.038m-2.325-1.875a14 14 0 0 1-1.35-.238c.137-.412.287-.85.475-1.287.137.25.275.512.425.762.15.275.3.513.45.763M4.8 7.678a15 15 0 0 1-.475-1.287c.425-.1.875-.176 1.35-.238-.15.238-.313.488-.45.75-.15.263-.288.525-.425.775M8 4.291c.3.324.587.674.862 1.037-.287-.013-.575-.025-.862-.025s-.575.013-.863.025c.275-.363.563-.713.863-1.038m2.775 2.624-.45-.75c.475.063.925.138 1.35.238-.138.413-.288.85-.475 1.288a15 15 0 0 0-.425-.776M3.962 4.892c-.212-1.313-.037-2.238.475-2.538a.84.84 0 0 1 .438-.113c.75 0 1.687.613 2.625 1.538a16 16 0 0 0-1.3 1.625c-.725.063-1.413.175-2.063.313-.075-.288-.125-.563-.175-.825M.875 8.515c0-.587.712-1.212 1.962-1.675.25-.1.525-.187.8-.262.2.625.45 1.287.75 1.95-.3.662-.562 1.313-.75 1.938-1.725-.5-2.762-1.25-2.762-1.95m3.562 6.163c-.512-.3-.687-1.225-.475-2.538.038-.262.1-.537.175-.825.65.15 1.338.25 2.063.313.425.6.862 1.137 1.3 1.625-.925.912-1.863 1.537-2.625 1.537a.84.84 0 0 1-.438-.112m7.6-2.538c.213 1.313.038 2.238-.475 2.538a.84.84 0 0 1-.437.112c-.75 0-1.688-.612-2.625-1.537.437-.475.875-1.025 1.3-1.625a17 17 0 0 0 2.063-.312c.075.287.125.562.175.824m1.125-1.95c-.25.1-.525.188-.8.263a18 18 0 0 0-.75-1.95c.3-.663.563-1.312.75-1.937 1.726.5 2.763 1.25 2.763 1.95 0 .587-.725 1.212-1.963 1.675"
    />
  </g>
</svg>
