<svg
  xmlns="http://www.w3.org/2000/svg"
  width="16"
  height="16"
  fill="none"
  viewBox="0 0 16 16"
>
  <path fill="#DF2428" d="M0 0h16v16H0z" />
  <path
    fill="#fff"
    d="M10.638 5.574h.809v.808h-.81zm-1.011 0h.809v.808h-.81zm0-1.011h.809v.808h-.81zm-1.011 0h.809v.808h-.81zm-1.011 0h.808v.808h-.808zm-1.011 0h.808v.808h-.808zm-1.011 0h.808v.808h-.808zm-.203 5.864h-.808v-.81h.808zm1.011 0h-.808v-.81h.808zm0 1.011h-.808v-.81h.808zm1.011 0h-.808v-.81h.808zm1.011 0h-.808v-.81h.808zm1.012 0h-.81v-.81h.81zm1.011 0h-.81v-.81h.81zm-.809-3.842h.809v.808h-.81zm-1.011 0h.809v.808h-.81zm-1.011 0h.808v.808h-.808zm-1.011 0h.808v.808h-.808zm-1.011 0h.808v.808h-.808zm0-2.022h.808v.808h-.808zm-1.011 0h.808v.808h-.808zm1.011 1.011h.808v.808h-.808zm-1.011 0h.808v.808h-.808zm6.066 2.022h.809v.808h-.81zm-1.011 0h.809v.808h-.81zm1.011 1.011h.809v.809h-.81zm-1.011 0h.809v.809h-.81z"
  />
</svg>
