<svg
  xmlns="http://www.w3.org/2000/svg"
  width="16"
  height="16"
  fill="none"
  viewBox="0 0 16 16"
>
  <g clip-path="url(#svgo-a)">
    <path
      fill="url(#svgo-b)"
      d="M14.646 6.38a7 7 0 0 0-.828-1.9c.274-.387.537-.782.781-1.2L12.715 1.4c-.43.252-.836.524-1.233.808a6.8 6.8 0 0 0-1.84-.76A16 16 0 0 0 9.337 0h-2.67a16 16 0 0 0-.299 1.42 6.9 6.9 0 0 0-1.896.753A16 16 0 0 0 3.287 1.4L1.401 3.285q.344.58.725 1.12a6.9 6.9 0 0 0-.88 1.992q-.628.111-1.245.269v2.667q.579.149 1.157.253a6.9 6.9 0 0 0 .855 2.173q-.324.466-.612.955l1.886 1.885c.32-.185.623-.382.92-.587a6.9 6.9 0 0 0 2.228.928q.096.534.232 1.06h2.667c.094-.362.171-.724.24-1.087a6.9 6.9 0 0 0 2.171-.938q.473.329.971.624l1.885-1.885c-.21-.358-.435-.701-.67-1.04a6.9 6.9 0 0 0 .8-2.073c.423-.074.846-.16 1.268-.27V6.666a16 16 0 0 0-1.353-.286M9.97 12.788a5.04 5.04 0 0 1-3.963.038v-.01q.002.002-.007.005A5.06 5.06 0 0 1 3.251 10q-.016-.034-.026-.068a5.03 5.03 0 0 1 .192-3.963 5.08 5.08 0 0 1 2.886-2.561 5.037 5.037 0 0 1 6.17 2.552q.073.146.135.297a5.04 5.04 0 0 1 .033 3.749 5.07 5.07 0 0 1-2.67 2.781"
    />
    <path
      fill="url(#svgo-c)"
      d="M11.578 9.745a1.013 1.013 0 0 0-1.702-.521l-.8-.596a1.384 1.384 0 0 0-.364-1.807l.648-1.11a.69.69 0 1 0-.277-.16l-.646 1.11a1.38 1.38 0 0 0-1.783.628L5.28 6.75v-.013a.64.64 0 1 0-.119.312l1.375.539A1.38 1.38 0 0 0 7.004 9l-.64.998a.855.855 0 1 0 .27.173l.64-.997a1.38 1.38 0 0 0 1.611-.291l.8.597a1.013 1.013 0 1 0 1.892.264"
    />
  </g>
  <defs>
    <linearGradient
      id="svgo-b"
      x1="2.36"
      x2="13.577"
      y1="2.358"
      y2="13.575"
      gradientUnits="userSpaceOnUse"
    >
      <stop stop-color="#45AFE4" />
      <stop offset="1" stop-color="#364F9E" />
    </linearGradient>
    <linearGradient
      id="svgo-c"
      x1="2.245"
      x2="13.462"
      y1="2.473"
      y2="13.691"
      gradientUnits="userSpaceOnUse"
    >
      <stop stop-color="#45AFE4" />
      <stop offset="1" stop-color="#364F9E" />
    </linearGradient>
    <clipPath id="svgo-a"><path fill="#fff" d="M0 0h16v16H0z" /></clipPath>
  </defs>
</svg>
