<svg
  xmlns="http://www.w3.org/2000/svg"
  width="16"
  height="17"
  fill="none"
  viewBox="0 0 16 17"
>
  <path fill="#fff" d="M2.834 6.39h12.459v9.21H2.832z" />
  <path
    fill="#007ACC"
    d="M.188 8.504v7.813h15.625V.692H.188zm12.59-.625c.375.087.715.283.978.563q.218.226.375.5c0 .02-.675.476-1.086.731-.015.01-.075-.055-.141-.154a.89.89 0 0 0-.734-.441c-.474-.032-.779.216-.776.625a.6.6 0 0 0 .067.293c.104.216.298.345.905.607 1.119.481 1.598.799 1.895 1.25.333.5.407 1.308.182 1.905-.25.65-.863 1.091-1.73 1.238a4.8 4.8 0 0 1-1.19-.013 2.88 2.88 0 0 1-1.59-.829c-.143-.159-.423-.572-.405-.602q.068-.052.143-.091l.579-.32.449-.26.094.138c.158.226.36.42.592.568.5.262 1.183.226 1.52-.078a.68.68 0 0 0 .086-.865c-.125-.174-.375-.32-1.073-.625-.807-.347-1.154-.562-1.472-.905a2.1 2.1 0 0 1-.428-.781 3.1 3.1 0 0 1-.028-1c.166-.779.75-1.322 1.602-1.484a4 4 0 0 1 1.187.033zm-3.667.655v.64H7.082v5.779H5.645v-5.78H3.61v-.625a6 6 0 0 1 .015-.646c.01-.011 1.25-.011 2.75-.011h2.729z"
  />
</svg>
