<svg
  xmlns="http://www.w3.org/2000/svg"
  width="16"
  height="16"
  fill="none"
  viewBox="0 0 16 16"
>
  <g clip-path="url(#a)">
    <path
      fill="#8ED6FB"
      d="M14.661 12.263 8.28 15.875v-2.814l3.97-2.186zm.438-.396V4.32l-2.335 1.35v4.851l2.334 1.346zm-13.76.395 6.375 3.61v-2.81l-3.972-2.187zM.9 11.868V4.32l2.335 1.35v4.851zm.274-8.037L7.72.125v2.72L3.526 5.151l-.033.019zm13.647 0L8.28.125v2.72l4.194 2.305.034.019 2.317-1.339z"
    />
    <path
      fill="#1C78C0"
      d="m7.72 12.421-3.924-2.158V5.99L7.72 8.25zm.56 0 3.924-2.156V5.99L8.28 8.25zM4.063 5.5 8 3.333 11.938 5.5 8 7.77z"
    />
  </g>
  <defs>
    <clipPath id="a"><path fill="#fff" d="M0 0h16v16H0z" /></clipPath>
  </defs>
</svg>
