<svg width="14" height="14" viewBox="0 0 14 14" fill="none" xmlns="http://www.w3.org/2000/svg">
<path d="M6.99996 12.8334C6.20274 12.8334 5.44926 12.6801 4.73954 12.3737C4.02982 12.0676 3.41013 11.6496 2.88046 11.1195C2.3504 10.5899 1.93235 9.97016 1.62629 9.26044C1.31985 8.55071 1.16663 7.79724 1.16663 7.00002C1.16663 6.19308 1.31985 5.43727 1.62629 4.7326C1.93235 4.02755 2.3504 3.41019 2.88046 2.88052C3.41013 2.35046 4.02982 1.93221 4.73954 1.62577C5.44926 1.31971 6.20274 1.16669 6.99996 1.16669C7.8069 1.16669 8.56271 1.31971 9.26738 1.62577C9.97243 1.93221 10.5898 2.35046 11.1195 2.88052C11.6495 3.41019 12.0676 4.02755 12.3736 4.7326C12.6801 5.43727 12.8333 6.19308 12.8333 7.00002V7.84585C12.8333 8.41946 12.6365 8.90791 12.243 9.31119C11.849 9.71485 11.3652 9.91669 10.7916 9.91669C10.4416 9.91669 10.1159 9.83891 9.81454 9.68335C9.51315 9.5278 9.26524 9.32363 9.07079 9.07085C8.80829 9.33335 8.49971 9.54005 8.14504 9.69094C7.78999 9.84144 7.40829 9.91669 6.99996 9.91669C6.19301 9.91669 5.50526 9.63221 4.93671 9.06327C4.36776 8.49471 4.08329 7.80696 4.08329 7.00002C4.08329 6.19308 4.36776 5.50513 4.93671 4.93619C5.50526 4.36763 6.19301 4.08335 6.99996 4.08335C7.8069 4.08335 8.49485 4.36763 9.06379 4.93619C9.63235 5.50513 9.91663 6.19308 9.91663 7.00002V7.84585C9.91663 8.1278 10.0041 8.34888 10.1791 8.5091C10.3541 8.66971 10.5583 8.75002 10.7916 8.75002C11.025 8.75002 11.2291 8.66971 11.4041 8.5091C11.5791 8.34888 11.6666 8.1278 11.6666 7.84585V7.00002C11.6666 5.72641 11.2072 4.63013 10.2882 3.71119C9.36965 2.79263 8.27357 2.33335 6.99996 2.33335C5.72635 2.33335 4.63007 2.79263 3.71113 3.71119C2.79257 4.63013 2.33329 5.72641 2.33329 7.00002C2.33329 8.27363 2.79257 9.36971 3.71113 10.2883C4.63007 11.2072 5.72635 11.6667 6.99996 11.6667H9.91663V12.8334H6.99996ZM6.99996 8.75002C7.48607 8.75002 7.89926 8.57988 8.23954 8.2396C8.57982 7.89933 8.74996 7.48613 8.74996 7.00002C8.74996 6.51391 8.57982 6.10071 8.23954 5.76044C7.89926 5.42016 7.48607 5.25002 6.99996 5.25002C6.51385 5.25002 6.10065 5.42016 5.76038 5.76044C5.4201 6.10071 5.24996 6.51391 5.24996 7.00002C5.24996 7.48613 5.4201 7.89933 5.76038 8.2396C6.10065 8.57988 6.51385 8.75002 6.99996 8.75002Z" fill="white"/>
</svg>
