<svg width="14" height="14" viewBox="0 0 14 14" fill="none" xmlns="http://www.w3.org/2000/svg">
<path d="M3.52644 10.5906C3.35144 10.4739 3.20094 10.3251 3.02478 10.1146C2.93334 10.0027 2.84272 9.89007 2.75294 9.77681C2.48286 9.4414 2.31253 9.28682 2.13636 9.22323C1.9907 9.17094 1.87178 9.06293 1.80576 8.92295C1.73974 8.78298 1.73203 8.62252 1.78432 8.47686C1.83661 8.3312 1.94462 8.21228 2.0846 8.14626C2.22457 8.08024 2.38504 8.07252 2.53069 8.12481C2.96936 8.28231 3.26628 8.55357 3.66644 9.05115C3.61161 8.9829 3.86478 9.30023 3.91903 9.36556C4.02986 9.49798 4.11153 9.57848 4.17569 9.62106C4.29469 9.70098 4.51811 9.7354 4.84653 9.70273C4.85994 9.4799 4.90136 9.26348 4.96436 9.06398C3.23303 8.64048 2.25303 7.52398 2.25303 5.33298C2.25303 4.60965 2.46886 3.95865 2.87019 3.41265C2.74303 2.89115 2.76228 2.26057 3.04636 1.55065C3.0786 1.47034 3.1283 1.39822 3.19187 1.3395C3.25543 1.28078 3.33126 1.23694 3.41386 1.21115C3.46111 1.19715 3.48794 1.19073 3.53519 1.18373C4.00361 1.11198 4.66511 1.2829 5.52728 1.82307C6.04108 1.70295 6.56704 1.64266 7.09469 1.6434C7.62669 1.6434 8.15519 1.70407 8.66036 1.82307C9.52194 1.27882 10.1846 1.1079 10.6565 1.18373C10.7061 1.19132 10.7481 1.20123 10.7837 1.2129C10.8647 1.2396 10.9388 1.28374 11.0009 1.34219C11.063 1.40065 11.1115 1.472 11.143 1.55123C11.4271 2.26057 11.4464 2.89115 11.3192 3.41207C11.7223 3.95807 11.9364 4.60498 11.9364 5.33298C11.9364 7.52457 10.9599 8.63756 9.22853 9.06165C9.30144 9.30373 9.33936 9.5744 9.33936 9.86665C9.33941 10.3948 9.33708 10.9229 9.33236 11.451C9.46336 11.4796 9.58052 11.5524 9.66412 11.6572C9.74771 11.7621 9.79264 11.8925 9.79134 12.0266C9.79004 12.1606 9.74259 12.2902 9.65697 12.3934C9.57136 12.4966 9.45281 12.5671 9.32128 12.5931C8.65686 12.7261 8.16453 12.2828 8.16453 11.7036L8.16569 11.4434L8.16861 11.0321C8.17153 10.6191 8.17269 10.2516 8.17269 9.86665C8.17269 9.46007 8.06594 9.19465 7.92478 9.07332C7.53919 8.74082 7.73461 8.1079 8.23978 8.05132C9.97053 7.85707 10.7697 7.18682 10.7697 5.33298C10.7697 4.7759 10.5877 4.31565 10.2371 3.93065C10.1632 3.84971 10.1137 3.7496 10.0941 3.64179C10.0745 3.53398 10.0856 3.42283 10.1263 3.32107C10.2231 3.07957 10.2645 2.76282 10.1823 2.37957L10.1764 2.38132C9.89003 2.4624 9.52894 2.63798 9.09261 2.9349C9.02225 2.98265 8.9423 3.01444 8.85837 3.02804C8.77443 3.04164 8.68853 3.03673 8.60669 3.01365C8.1143 2.87732 7.60561 2.80882 7.09469 2.81007C6.57553 2.81007 6.06103 2.87948 5.58269 3.01423C5.50116 3.03713 5.41561 3.042 5.332 3.0285C5.24839 3.015 5.16872 2.98346 5.09853 2.93607C4.65986 2.64032 4.29703 2.46532 4.00886 2.38365C3.92486 2.76457 3.96628 3.08015 4.06253 3.32107C4.10325 3.42277 4.1145 3.53389 4.09501 3.6417C4.07551 3.74951 4.02604 3.84965 3.95228 3.93065C3.60403 4.31215 3.41969 4.78115 3.41969 5.33298C3.41969 7.18332 4.21944 7.85765 5.94086 8.05132C6.44544 8.1079 6.64144 8.7379 6.25819 9.07098C6.14619 9.16898 6.00794 9.49798 6.00794 9.86665V11.7041C6.00794 12.2793 5.52086 12.7104 4.86461 12.5955C4.73147 12.5721 4.61059 12.5032 4.52261 12.4006C4.43464 12.298 4.38503 12.168 4.38228 12.0328C4.37952 11.8977 4.42379 11.7658 4.50751 11.6596C4.59123 11.5535 4.7092 11.4798 4.84128 11.451V10.8735C4.31044 10.9091 3.87178 10.8221 3.52644 10.5906V10.5906Z" fill="white"/>
</svg>
