<svg
  xmlns="http://www.w3.org/2000/svg"
  width="1920"
  height="2160"
  fill="none"
  viewBox="0 0 1920 2160"
>
  <title>Page background blobs</title>
  <g clip-path="url(#page-bg-a)">
    <path
      fill="#FE7B7C"
      fill-opacity=".3"
      d="M534 422.5C383.5-101.5 0 210.5 0 229v851.5s513.5 368 693.5 272.5 561-490.5 496.5-633.5c-78.41-173.842-527.019 152.077-656-297"
    />
    <path
      fill="#7BA0FF"
      fill-opacity=".29"
      d="M1411 153.001C1411 7.5 1684.33 70.5 1920 84.5v764c0 207.5-764.98 170-881-22.5-116.016-192.5 326-229.5 230-353.5s142-228.208 142-319.499"
    />
    <path
      fill="#52E9B2"
      fill-opacity=".22"
      d="M995 275c-116-79.5-219.5-185.5-461-55.5C252.568 370.995 54.195 257.511 0 72.5V0h1505.5c178 402.5-394.5 354.5-510.5 275"
    />
    <path
      fill="#FE7B7C"
      fill-opacity=".3"
      d="M769 1388c23 192.32 939 520 1151 204.5v-478c-207 239.5-228.77 149.81-547.5-39.5C846.383 762.501 746 1195.68 769 1388"
    />
    <path
      fill="#7BA0FF"
      fill-opacity=".29"
      d="M1295.06 1833.87c0-145.59 380.34-580.44 624.94-129.66V2160h-803.24c-117.992-124.08 178.3-234.78 178.3-326.13"
    />
    <path
      fill="#52E9B2"
      fill-opacity=".22"
      d="M805 1729c-581 184-479-629-805-297.5v728h1127.5c138 0 258.5-614.5-322.5-430.5"
    />
  </g>
  <defs>
    <clipPath id="page-bg-a">
      <path fill="#fff" d="M0 0h1920v2160H0z" />
    </clipPath>
  </defs>
</svg>
