<svg
  xmlns="http://www.w3.org/2000/svg"
  width="11"
  height="15"
  fill="none"
  viewBox="0 0 11 15"
>
  <path
    fill="#F6D2A2"
    fill-rule="evenodd"
    d="M.139 8.09c.02.413.432.222.619.093.178-.122.23-.02.245-.262a4 4 0 0 0 .02-.478 1.17 1.17 0 0 0-.78.2c-.114.083-.326.345-.104.45"
    clip-rule="evenodd"
  />
  <path
    fill="#000"
    d="M.353 8.381a.25.25 0 0 1-.118-.025.27.27 0 0 1-.135-.241.18.18 0 0 1-.1-.142.5.5 0 0 1 .216-.363 1.2 1.2 0 0 1 .807-.207l.034.003v.034a3 3 0 0 1-.012.374l-.008.109c-.011.171-.043.197-.131.228a.5.5 0 0 0-.131.064.9.9 0 0 1-.422.166m.555-.904a1.1 1.1 0 0 0-.643.197c-.081.06-.193.197-.184.292a.11.11 0 0 0 .074.089l.021.01v.023q.008.156.093.197c.108.054.312-.029.465-.134a.6.6 0 0 1 .15-.074c.058-.02.07-.025.079-.159q.002-.055.008-.11a3 3 0 0 0 .013-.329z"
  />
  <path
    fill="#C6B198"
    fill-rule="evenodd"
    d="M.139 8.09a.33.33 0 0 0 .164-.092z"
    clip-rule="evenodd"
  />
  <path
    fill="#000"
    d="M.139 8.13a.04.04 0 0 1-.014-.076l.026-.01a.24.24 0 0 0 .132-.081.04.04 0 0 1 .052.059.3.3 0 0 1-.157.096l-.025.01z"
  />
  <path
    fill="#6AD7E5"
    fill-rule="evenodd"
    d="M1.092 3.17C-.49 2.725.686.715 1.956 1.541z"
    clip-rule="evenodd"
  />
  <path
    fill="#000"
    d="m1.112 3.215-.03-.008a.965.965 0 0 1-.782-.75 1.05 1.05 0 0 1 .489-.99 1.06 1.06 0 0 1 1.189.041l.03.02zm.224-1.833a.93.93 0 0 0-.505.15.97.97 0 0 0-.453.912.88.88 0 0 0 .694.68l.833-1.569a1.1 1.1 0 0 0-.568-.172"
  />
  <path
    fill="#6AD7E5"
    fill-rule="evenodd"
    d="M8.117 1.39c1.25-.879 2.382 1.105.928 1.604z"
    clip-rule="evenodd"
  />
  <path
    fill="#000"
    d="M9.028 3.041 8.065 1.38l.03-.02a1.035 1.035 0 0 1 1.147-.097 1.06 1.06 0 0 1 .522.982.94.94 0 0 1-.707.787zm-.859-1.639.894 1.543a.86.86 0 0 0 .623-.709.98.98 0 0 0-.483-.907.93.93 0 0 0-1.033.073"
  />
  <path
    fill="#F6D2A2"
    fill-rule="evenodd"
    d="M8.387 13.174c.317.197.9.792.422 1.08-.458.42-.715-.46-1.117-.582a1.12 1.12 0 0 1 .694-.498"
    clip-rule="evenodd"
  />
  <path
    fill="#000"
    d="M8.567 14.406h-.019c-.18-.011-.33-.187-.476-.357a1 1 0 0 0-.392-.339l-.053-.016.033-.045a1.16 1.16 0 0 1 .72-.513h.015l.013.008c.203.126.623.493.621.826a.37.37 0 0 1-.197.319.4.4 0 0 1-.265.117m-.812-.75c.148.087.276.204.378.343.14.165.273.321.42.33a.32.32 0 0 0 .228-.1l.006-.004a.29.29 0 0 0 .162-.253c0-.266-.335-.6-.572-.75a1.03 1.03 0 0 0-.623.431z"
  />
  <path
    fill="#000"
    d="M8.809 14.294a.04.04 0 0 1-.035-.021 2 2 0 0 1-.062-.151.65.65 0 0 0-.143-.259.04.04 0 0 1 .054-.056.7.7 0 0 1 .163.288q.025.072.058.14a.04.04 0 0 1-.018.053z"
  />
  <path
    fill="#F6D2A2"
    fill-rule="evenodd"
    d="M2.707 13.847c-.373.057-.583.394-.894.565-.293.175-.405-.056-.431-.103-.046-.021-.042.02-.113-.05-.274-.431.282-.744.571-.957.403-.082.655.267.867.545"
    clip-rule="evenodd"
  />
  <path
    fill="#000"
    d="M1.615 14.516a.3.3 0 0 1-.071-.01.33.33 0 0 1-.19-.165h-.009c-.033 0-.057-.006-.107-.056l-.005-.007c-.262-.412.184-.726.478-.934q.056-.038.104-.073l.007-.006h.008c.415-.084.677.26.887.535l.06.077-.066.01c-.21.051-.403.161-.552.317q-.152.14-.329.244a.43.43 0 0 1-.216.067m-.264-.254a.1.1 0 0 1 .046.011l.012.005.01.018a.25.25 0 0 0 .145.135.3.3 0 0 0 .228-.05q.17-.102.317-.236a1.3 1.3 0 0 1 .528-.322c-.2-.263-.431-.547-.781-.482l-.1.07c-.3.212-.676.476-.46.824.031.031.039.03.045.03z"
  />
  <path
    fill="#000"
    d="M1.381 14.348h-.004a.04.04 0 0 1-.036-.043.6.6 0 0 1 .127-.285q.047-.066.083-.138a.04.04 0 0 1 .072.032 1 1 0 0 1-.09.15.54.54 0 0 0-.112.25.04.04 0 0 1-.04.034"
  />
  <path
    fill="#000"
    fill-rule="evenodd"
    d="M1.158 2.615c-.208-.11-.361-.26-.234-.5.118-.223.338-.2.546-.089zm7.558-.21c.208-.111.361-.26.234-.5-.118-.224-.338-.2-.546-.09z"
    clip-rule="evenodd"
  />
  <path
    fill="#F6D2A2"
    fill-rule="evenodd"
    d="M10.152 8.038c-.02.413-.433.222-.62.093-.178-.122-.23-.02-.245-.262a4 4 0 0 1-.02-.478 1.17 1.17 0 0 1 .78.2c.114.083.326.345.104.45"
    clip-rule="evenodd"
  />
  <path
    fill="#000"
    d="M9.937 8.329a.9.9 0 0 1-.427-.166.5.5 0 0 0-.13-.064c-.089-.031-.121-.057-.132-.228q-.002-.055-.008-.109a3 3 0 0 1-.011-.374v-.034l.034-.003a1.2 1.2 0 0 1 .806.207.5.5 0 0 1 .216.363.18.18 0 0 1-.1.142.27.27 0 0 1-.135.241.25.25 0 0 1-.113.025m-.631-.9q-.003.165.013.329l.007.11c.009.134.021.138.079.159a.6.6 0 0 1 .15.074c.153.106.357.188.466.134q.084-.042.092-.197v-.023l.021-.01a.11.11 0 0 0 .074-.089c.009-.095-.103-.233-.184-.292a1.1 1.1 0 0 0-.718-.197z"
  />
  <path
    fill="#C6B198"
    fill-rule="evenodd"
    d="M10.152 8.038a.33.33 0 0 1-.165-.092z"
    clip-rule="evenodd"
  />
  <path
    fill="#000"
    d="M10.152 8.077h-.014l-.025-.009a.3.3 0 0 1-.157-.096.04.04 0 1 1 .063-.047.24.24 0 0 0 .12.07l.027.009a.04.04 0 0 1-.014.076z"
  />
  <path
    fill="#6AD7E5"
    fill-rule="evenodd"
    d="M4.987.555c1.582 0 3.066.226 3.84 1.747.694 1.705.447 3.543.553 5.345.091 1.547.293 3.334-.425 4.768-.755 1.508-2.641 1.888-4.195 1.832-1.221-.043-2.696-.442-3.385-1.557-.808-1.31-.425-3.255-.367-4.711.07-1.725-.467-3.455.1-5.143C1.696 1.086 3.281.69 4.987.555"
    clip-rule="evenodd"
  />
  <path
    fill="#000"
    d="M5.03 14.29q-.15.001-.272-.004c-.75-.027-2.587-.235-3.416-1.576-.654-1.06-.537-2.521-.435-3.812.026-.324.05-.631.063-.921a15 15 0 0 0-.08-1.833 8.1 8.1 0 0 1 .18-3.32 2.9 2.9 0 0 1 1.54-1.77A6.5 6.5 0 0 1 4.984.515h.003c1.545 0 3.085.215 3.875 1.77v.002a10.3 10.3 0 0 1 .522 3.881c.002.485.005.986.034 1.476q.013.225.029.45c.092 1.421.196 3.032-.458 4.337-.815 1.63-2.87 1.86-3.959 1.86M4.988.595c-1.647.13-3.25.494-3.844 2.254a8.05 8.05 0 0 0-.176 3.29 15 15 0 0 1 .077 1.842c-.012.292-.036.6-.062.925-.1 1.279-.217 2.728.423 3.764.809 1.31 2.614 1.512 3.353 1.538.96.035 3.289-.073 4.159-1.81.644-1.287.54-2.886.45-4.296l-.029-.45a27 27 0 0 1-.034-1.48 10.2 10.2 0 0 0-.515-3.85C8.02.803 6.508.594 4.988.594"
  />
  <path
    fill="#fff"
    fill-rule="evenodd"
    d="M5.266 2.68c.284 1.65 2.985 1.215 2.597-.45-.35-1.494-2.692-1.08-2.597.45"
    clip-rule="evenodd"
  />
  <path
    fill="#000"
    d="M6.549 3.758a1.5 1.5 0 0 1-.494-.081 1.22 1.22 0 0 1-.826-.991v-.004a1.335 1.335 0 0 1 1.207-1.407A1.24 1.24 0 0 1 7.9 2.22a1.16 1.16 0 0 1-.336 1.172c-.283.24-.644.37-1.015.366M5.304 2.675a1.15 1.15 0 0 0 .776.93 1.5 1.5 0 0 0 1.433-.27 1.09 1.09 0 0 0 .313-1.1 1.17 1.17 0 0 0-1.381-.885 1.26 1.26 0 0 0-1.141 1.325"
  />
  <path
    fill="#fff"
    fill-rule="evenodd"
    d="M2.039 2.947c.368 1.438 2.671 1.068 2.584-.373-.104-1.728-2.936-1.394-2.584.373"
    clip-rule="evenodd"
  />
  <path
    fill="#000"
    d="M3.268 3.896a1.4 1.4 0 0 1-.673-.163 1.2 1.2 0 0 1-.592-.777 1.2 1.2 0 0 1 .413-1.236 1.56 1.56 0 0 1 1.543-.197 1.17 1.17 0 0 1 .7 1.05 1.265 1.265 0 0 1-1.144 1.305 1.5 1.5 0 0 1-.248.018m-1.193-.957a1.2 1.2 0 0 0 1.429.864 1.193 1.193 0 0 0 1.083-1.227 1.1 1.1 0 0 0-.657-.988 1.48 1.48 0 0 0-1.468.187 1.14 1.14 0 0 0-.387 1.164"
  />
  <path
    fill="#fff"
    fill-rule="evenodd"
    d="M5.592 4.662q.035.343.008.685c-.055.103-.162.114-.255.156a.38.38 0 0 1-.287-.224 5 5 0 0 1 .02-.775z"
    clip-rule="evenodd"
  />
  <path
    fill="#000"
    d="M5.35 5.544h-.01a.42.42 0 0 1-.318-.25v-.01a2.6 2.6 0 0 1 .005-.532q.01-.123.016-.25v-.05l.59.181v.029q.002.106.012.222a2 2 0 0 1-.004.47v.005l-.003.006a.33.33 0 0 1-.207.15l-.067.026zm-.254-.276a.34.34 0 0 0 .244.194l.062-.023a.27.27 0 0 0 .16-.106 2 2 0 0 0 0-.443 4 4 0 0 1-.011-.2l-.437-.134-.014.2a2.5 2.5 0 0 0-.005.512zM2.674 3.133c.215 0 .389-.188.389-.42 0-.233-.174-.422-.389-.422s-.389.189-.389.421c0 .233.174.421.389.421"
  />
  <path
    fill="#fff"
    d="M2.851 2.914c.05 0 .091-.047.091-.107 0-.059-.04-.107-.091-.107s-.091.048-.091.107c0 .06.04.107.091.107"
  />
  <path
    fill="#000"
    d="M5.932 3.028c.211 0 .382-.188.382-.42 0-.233-.17-.422-.382-.422-.211 0-.383.189-.383.421 0 .233.172.421.383.421"
  />
  <path
    fill="#fff"
    d="M6.106 2.81c.05 0 .09-.048.09-.108 0-.059-.04-.107-.09-.107s-.09.048-.09.107c0 .06.04.107.09.107"
  />
  <path
    fill="#fff"
    fill-rule="evenodd"
    d="M4.48 4.639c-.169.411.095 1.233.555.627a5 5 0 0 1 .021-.775z"
    clip-rule="evenodd"
  />
  <path
    fill="#000"
    d="M4.728 5.522a.23.23 0 0 1-.113-.031.8.8 0 0 1-.17-.867l.007-.018.643-.166v.05q-.005.129-.016.25a2.5 2.5 0 0 0-.005.516v.016l-.01.013c-.132.18-.247.237-.336.237m-.218-.85a.73.73 0 0 0 .144.75c.119.068.25-.05.34-.168a2.7 2.7 0 0 1 .007-.515q.008-.097.013-.196z"
  />
  <path
    fill="#F6D2A2"
    fill-rule="evenodd"
    d="M4.539 3.847a.5.5 0 0 0-.411.7c.218.394.704-.035 1.007.005.35.007.634.369.913.066.311-.337-.134-.666-.482-.812z"
    clip-rule="evenodd"
  />
  <path
    fill="#231F20"
    d="M5.799 4.778a.9.9 0 0 1-.32-.089 1 1 0 0 0-.345-.097h-.005a.9.9 0 0 0-.355.076c-.246.085-.524.181-.68-.1a.48.48 0 0 1 .006-.459.56.56 0 0 1 .435-.3l1.039-.044.008.004c.258.109.553.308.603.541a.42.42 0 0 1-.386.468m-.662-.263q.197.018.372.103c.196.083.35.148.51-.025a.29.29 0 0 0 .09-.264c-.044-.2-.322-.384-.55-.482l-1.019.041a.49.49 0 0 0-.37.258.4.4 0 0 0-.008.384c.124.224.35.147.585.065a.95.95 0 0 1 .39-.08"
  />
  <path
    fill="#000"
    fill-rule="evenodd"
    d="M4.499 3.83c-.023-.547 1.021-.615 1.146-.157s-1.093.564-1.144.158z"
    clip-rule="evenodd"
  />
</svg>
