<svg
  xmlns="http://www.w3.org/2000/svg"
  width="16"
  height="17"
  fill="none"
  viewBox="0 0 16 17"
>
  <path
    fill="#E14E1D"
    d="M12.25.516h-8.5A3.75 3.75 0 0 0 0 4.266v8.5a3.75 3.75 0 0 0 3.75 3.75h8.5a3.75 3.75 0 0 0 3.75-3.75v-8.5a3.75 3.75 0 0 0-3.75-3.75"
  />
  <path
    fill="#fff"
    d="m3 2.89.538 6.038h6.92l-.233 2.589-2.228.602-2.223-.601-.149-1.663H3.621l.287 3.205 4.089 1.136 4.094-1.136.55-6.129H5.363L5.18 4.887h7.64L13 2.891z"
  />
  <path
    fill="#EBEBEB"
    d="M8 2.89H3l.538 6.038H8V6.93H5.364l-.183-2.044H8zm0 9.228-.003.001-2.223-.601-.149-1.663H3.621l.287 3.205 4.089 1.136H8z"
  />
</svg>
