<svg
  xmlns="http://www.w3.org/2000/svg"
  width="16"
  height="17"
  fill="none"
  viewBox="0 0 16 17"
>
  <path fill="#F0DB4F" d="M.176.691h15.648V16.34H.176z" />
  <path
    fill="#323330"
    d="M14.543 12.608c-.114-.714-.58-1.314-1.959-1.873-.479-.22-1.013-.378-1.172-.74-.056-.212-.064-.331-.028-.459.103-.415.598-.544.99-.425.253.084.493.28.637.59.676-.437.674-.434 1.146-.735-.173-.267-.265-.39-.378-.505-.406-.454-.96-.688-1.845-.67l-.46.06c-.442.112-.863.343-1.11.654-.741.84-.53 2.312.372 2.917.888.667 2.192.818 2.359 1.441.162.764-.561 1.01-1.28.923-.529-.11-.823-.38-1.142-.869-.586.34-.586.34-1.188.686.143.312.293.454.532.724 1.134 1.15 3.97 1.093 4.479-.647.02-.06.157-.458.047-1.072m-5.86-4.725H7.219l-.006 3.784c0 .805.042 1.543-.09 1.769-.213.445-.768.39-1.021.303-.257-.126-.388-.306-.54-.56-.041-.073-.073-.13-.083-.134l-1.19.729c.198.406.49.758.863.987.557.335 1.307.438 2.09.258.511-.149.951-.457 1.182-.925.333-.615.262-1.358.259-2.181.007-1.342 0-2.684 0-4.03"
  />
</svg>
