<svg
  xmlns="http://www.w3.org/2000/svg"
  width="16"
  height="17"
  fill="none"
  viewBox="0 0 16 17"
>
  <path
    fill="#000"
    d="M11.726 12.03c.098-.817.069-.937.677-.805l.154.014c.468.021 1.08-.075 1.44-.242.774-.36 1.232-.959.47-.802-1.741.36-1.86-.23-1.86-.23 1.837-2.727 2.605-6.188 1.942-7.036C12.74.62 9.61 1.711 9.557 1.74l-.017.003a6 6 0 0 0-1.16-.12c-.788-.014-1.386.206-1.84.55 0 0-5.585-2.301-5.325 2.894.055 1.105 1.584 8.362 3.408 6.17.666-.802 1.31-1.48 1.31-1.48.32.213.703.322 1.104.283l.032-.027c-.01.1-.006.197.012.312-.47.525-.332.617-1.27.81-.951.196-.393.545-.028.636.441.11 1.464.267 2.154-.7l-.027.11c.184.148.172 1.06.198 1.712s.07 1.26.202 1.618c.133.359.29 1.282 1.524 1.018 1.032-.22 1.82-.539 1.892-3.498"
  />
  <path
    fill="#000"
    d="M9.432 16.173c-.546 0-.901-.212-1.117-.415-.326-.308-.455-.704-.532-.94l-.034-.1c-.155-.42-.208-1.024-.24-1.802l-.01-.365-.011-.333q-.297.142-.62.196a3 3 0 0 1-1.23-.063c-.305-.076-.621-.234-.802-.478-.525.46-1.026.398-1.3.307-.48-.16-.912-.612-1.317-1.38-.288-.546-.568-1.259-.83-2.117C.933 7.188.643 5.613.618 5.096.537 3.478.972 2.32 1.912 1.656 3.395.61 5.641 1.227 6.46 1.506c.55-.332 1.198-.493 1.93-.481.392.006.766.04 1.114.102A6.4 6.4 0 0 1 11.402.86c1.51.018 2.761.607 3.618 1.702.612.781.31 2.423.075 3.331a15 15 0 0 1-1.62 3.822 4.2 4.2 0 0 0 .87-.104c.785-.162 1.014.258 1.076.447.25.755-.834 1.326-1.172 1.483-.434.2-1.14.323-1.719.297l-.025-.002-.152-.013-.015.126-.014.124c-.04 1.5-.253 2.45-.694 3.078-.462.658-1.105.842-1.67.963q-.29.06-.528.06m-1.149-5.46c.353.283.384.813.411 1.805l.011.35c.014.331.045 1.107.166 1.435q.026.069.05.143c.135.415.202.622.788.497.491-.105.744-.2.941-.481.288-.41.449-1.233.478-2.447l.598.014-.594-.07.018-.149c.057-.489.098-.842.424-1.075.262-.187.561-.17.799-.127a.9.9 0 0 1-.353-.524l-.05-.245.14-.208a13.6 13.6 0 0 0 1.826-4.038c.364-1.406.253-2.153.142-2.295-1.466-1.873-4.008-1.1-4.274-1.012l-.045.025-.225.041-.115-.023a5.6 5.6 0 0 0-1.05-.11c-.594-.01-1.073.131-1.466.43l-.273.207-.317-.13c-.676-.277-2.663-.833-3.712-.09-.582.411-.847 1.22-.788 2.4.02.39.284 1.866.721 3.297.604 1.978 1.153 2.635 1.382 2.712.04.013.144-.067.247-.191q.645-.774 1.337-1.51l.346-.363.419.278c.168.112.355.175.546.187l.998-.851-.145 1.476a.6.6 0 0 0 .009.162l.043.28-.189.21-.022.025.549.253z"
  />
  <path
    fill="#336791"
    d="M14.466 10.196c-1.74.359-1.86-.23-1.86-.23 1.838-2.728 2.606-6.19 1.943-7.037C12.741.62 9.61 1.711 9.557 1.74l-.017.004a6 6 0 0 0-1.161-.121c-.788-.013-1.385.206-1.838.55 0 0-5.586-2.301-5.326 2.894.055 1.105 1.584 8.362 3.407 6.17.667-.801 1.31-1.479 1.31-1.479a1.7 1.7 0 0 0 1.105.282l.031-.027a1.2 1.2 0 0 0 .013.313c-.47.524-.332.617-1.271.81-.95.196-.392.544-.028.635.442.11 1.464.267 2.155-.7l-.028.11c.184.148.314.96.292 1.695s-.036 1.241.109 1.636.29 1.282 1.524 1.017c1.031-.22 1.566-.794 1.64-1.75.053-.679.172-.578.18-1.186l.096-.287c.11-.92.017-1.218.653-1.08l.154.014c.468.021 1.08-.075 1.44-.243.773-.358 1.232-.958.47-.8"
  />
  <path
    fill="#fff"
    d="M9.495 15.804c-1.03 0-1.355-.815-1.489-1.148-.195-.489-.237-2.384-.194-3.938a.199.199 0 0 1 .345-.132.2.2 0 0 1 .054.143c-.05 1.793.021 3.417.166 3.779.225.563.567 1.056 1.534.85.918-.198 1.262-.546 1.415-1.433.117-.682.35-2.62.378-3.002a.2.2 0 0 1 .137-.174.2.2 0 0 1 .261.204c-.03.398-.261 2.332-.383 3.04-.18 1.048-.648 1.523-1.724 1.754q-.275.059-.5.057m-5.58-3.98a.8.8 0 0 1-.264-.044c-.669-.223-1.305-1.311-1.893-3.236-.447-1.464-.73-2.993-.755-3.49C.93 3.581 1.31 2.54 2.131 1.957c1.626-1.152 4.36-.055 4.476-.008a.2.2 0 0 1-.15.37c-.027-.011-2.65-1.062-4.096-.036-.703.498-1.026 1.424-.96 2.751.021.419.286 1.91.739 3.394.524 1.718 1.12 2.801 1.637 2.974.08.027.327.109.68-.315q.616-.74 1.278-1.44a.2.2 0 0 1 .288.275 31 31 0 0 0-1.26 1.42c-.31.372-.606.482-.848.482m8.679-1.68a.2.2 0 0 1-.165-.312c1.857-2.757 2.51-6.088 1.951-6.802-.703-.898-1.696-1.367-2.95-1.394a5.6 5.6 0 0 0-1.789.259l-.03.012a.2.2 0 0 1-.171-.36l.054-.021c.205-.075.954-.3 1.883-.29 1.389.015 2.536.55 3.317 1.549.37.472.37 1.56.002 2.986a14.5 14.5 0 0 1-1.937 4.284.2.2 0 0 1-.165.088m.095 1.275c-.318 0-.602-.044-.772-.146a.4.4 0 0 1-.213-.323c-.048-.84.415-.985.651-1.052a3 3 0 0 0-.128-.168 3 3 0 0 1-.471-.76 5 5 0 0 0-.177-.331c-.447-.802-1.378-2.472-.78-3.327.277-.395.828-.551 1.64-.464-.239-.728-1.376-3.004-4.076-3.049-.811-.013-1.477.236-1.977.742-1.12 1.13-1.08 3.177-1.08 3.198a.2.2 0 0 1-.398.01c-.003-.09-.044-2.238 1.194-3.49.58-.584 1.343-.873 2.268-.858 1.727.028 2.838.906 3.467 1.637.684.797 1.02 1.677 1.048 1.97.02.218-.136.262-.168.269l-.072.001c-.797-.127-1.308-.039-1.52.263-.454.65.426 2.23.802 2.904.096.172.166.296.197.373.124.3.285.5.414.662.114.143.213.266.248.41.017.03.249.373 1.628.089.345-.072.553-.01.616.18.125.378-.575.817-.962.997-.347.161-.9.263-1.38.263m-.587-.502c.043.044.262.12.716.1.403-.017.828-.104 1.083-.223a2.3 2.3 0 0 0 .656-.436l-.062.011c-.882.182-1.505.158-1.854-.072l-.067-.05q-.059.022-.098.032c-.197.055-.402.112-.374.638M6.407 12.03q-.331 0-.685-.089c-.244-.06-.655-.244-.65-.546.008-.338.5-.44.685-.478.67-.138.713-.193.922-.459.061-.077.137-.173.24-.289q.232-.258.5-.259c.123 0 .225.042.292.07.213.088.391.302.465.558a.72.72 0 0 1-.09.626 1.99 1.99 0 0 1-1.68.866m-.903-.618c.06.047.18.109.315.142q.306.077.588.077c.568 0 1.024-.235 1.356-.699.069-.097.048-.22.03-.284-.04-.136-.136-.259-.235-.3a.4.4 0 0 0-.14-.04c-.021 0-.088 0-.2.127a5 5 0 0 0-.225.27c-.26.331-.38.443-1.155.603a1.3 1.3 0 0 0-.334.104m1.533-.92a.2.2 0 0 1-.197-.169 1 1 0 0 1-.01-.1 1.95 1.95 0 0 1-1.37-.616 2.23 2.23 0 0 1-.587-1.866c.106-.754.066-1.42.045-1.778q-.01-.148-.01-.221c0-.063.002-.23.561-.514a3.1 3.1 0 0 1 1.034-.322c.722-.075 1.198.247 1.34.905.385 1.779.031 2.565-.228 3.14q-.073.16-.13.306l-.032.086c-.136.367-.255.683-.218.92a.2.2 0 0 1-.167.227zM5.308 5.798l.008.142c.022.372.063 1.064-.048 1.858-.08.573.095 1.132.48 1.534a1.55 1.55 0 0 0 1.118.493h.008c.046-.194.123-.4.205-.62l.032-.086c.041-.11.09-.217.14-.33.25-.554.56-1.242.202-2.892-.07-.327-.242-.516-.523-.579-.579-.127-1.44.308-1.622.48m1.204-.085c-.01.07.129.26.31.284.181.026.337-.122.346-.192.01-.07-.129-.148-.31-.174-.182-.025-.337.012-.346.082m.352.354-.05-.004a.48.48 0 0 1-.305-.19c-.027-.036-.072-.106-.063-.169.013-.092.125-.147.3-.147a.9.9 0 0 1 .371.086c.114.064.122.135.117.171-.014.102-.176.253-.37.253m-.286-.342c.005.044.113.187.253.207l.033.002c.13 0 .226-.102.238-.136-.012-.022-.096-.079-.253-.1a1 1 0 0 0-.103-.008c-.102 0-.155.023-.168.035m5.45-.155c.01.07-.129.258-.31.284s-.336-.122-.346-.193c-.01-.07.13-.148.31-.173.182-.026.336.011.346.081m-.352.32c-.174 0-.325-.136-.337-.224-.015-.106.16-.187.339-.211a1 1 0 0 1 .116-.009c.155 0 .257.046.267.119.007.047-.03.12-.092.186a.44.44 0 0 1-.247.135zm.118-.377a1 1 0 0 0-.107.008c-.18.025-.288.097-.282.136.006.042.12.166.271.166l.037-.003a.37.37 0 0 0 .208-.114c.055-.059.077-.113.075-.132-.004-.025-.07-.061-.202-.061m.496 4.105a.2.2 0 0 1-.166-.31c.425-.634.347-1.281.272-1.907a5.4 5.4 0 0 1-.057-.807c.01-.272.044-.496.077-.713.04-.258.077-.5.062-.79a.2.2 0 0 1 .398-.02c.018.33-.025.604-.066.87a5 5 0 0 0-.072.666c-.008.234.022.483.054.746.08.666.17 1.42-.336 2.177a.2.2 0 0 1-.166.088"
  />
</svg>
