<svg
  xmlns="http://www.w3.org/2000/svg"
  width="16"
  height="17"
  fill="none"
  viewBox="0 0 16 17"
>
  <path
    fill="#38BDF8"
    d="M8 3.716q-3.2 0-4 3.2 1.2-1.6 2.8-1.2c.61.152 1.044.593 1.526 1.082.784.796 1.692 1.718 3.675 1.718q3.2 0 4-3.2-1.2 1.599-2.8 1.2c-.61-.152-1.044-.594-1.526-1.083C10.89 4.637 9.983 3.716 8 3.716m-4 4.8q-3.2 0-4 3.2 1.2-1.6 2.8-1.2c.61.151 1.044.593 1.526 1.082.784.796 1.692 1.717 3.674 1.717q3.2 0 4-3.2-1.2 1.6-2.8 1.2c-.608-.151-1.043-.593-1.525-1.082C6.89 9.437 5.983 8.516 4 8.516"
  />
</svg>
